{"scene":0,"asset":{"generator":"ImageToStl.com","version":"2.0"},"scenes":[{"name":"Scene","nodes":[0]}],"nodes":[{"name":"Node0","children":[1,2,3,4,5,6,7]},{"name":"Node1","mesh":0},{"name":"Node2","mesh":1},{"name":"Node3","mesh":2},{"name":"Node4","mesh":3},{"name":"Node5","mesh":4},{"name":"Node6","mesh":5},{"name":"Node7","mesh":6}],"materials":[{"name":"dark","pbrMetallicRoughness":{"baseColorFactor":[0.003589,0.073224,0.0,1.0],"metallicFactor":0.5,"roughnessFactor":0.75},"emissiveFactor":[0.0,0.0,0.0],"doubleSided":true},{"name":"light","pbrMetallicRoughness":{"baseColorFactor":[0.350271,0.515612,0.128728,1.0],"metallicFactor":0.5,"roughnessFactor":0.75},"emissiveFactor":[0.0,0.0,0.0],"doubleSided":true},{"name":"pit","pbrMetallicRoughness":{"baseColorFactor":[0.059145,0.033886,0.019046,1.0],"metallicFactor":0.5,"roughnessFactor":0.75},"emissiveFactor":[0.0,0.0,0.0],"doubleSided":true},{"name":"eyes and mouth","pbrMetallicRoughness":{"baseColorFactor":[0.0,0.0,0.0,1.0],"metallicFactor":0.5,"roughnessFactor":0.0},"emissiveFactor":[0.0,0.0,0.0],"doubleSided":true},{"name":"arms","pbrMetallicRoughness":{"baseColorFactor":[0.158037,0.10412,0.024946,1.0],"metallicFactor":0.5,"roughnessFactor":0.51},"emissiveFactor":[0.0,0.0,0.0],"doubleSided":true},{"name":"Material.001","pbrMetallicRoughness":{"baseColorFactor":[0.8,0.304983,0.243147,1.0],"metallicFactor":0.5,"roughnessFactor":0.75},"emissiveFactor":[0.0,0.0,0.0],"doubleSided":true}],"meshes":[{"name":"Mesh0","primitives":[{"indices":3,"material":0,"attributes":{"POSITION":0,"NORMAL":1,"TEXCOORD_0":2}},{"indices":4,"material":1,"attributes":{"POSITION":0,"NORMAL":1,"TEXCOORD_0":2}}]},{"name":"Mesh0","primitives":[{"indices":8,"material":3,"attributes":{"POSITION":5,"NORMAL":6,"TEXCOORD_0":7}}]},{"name":"Mesh0","primitives":[{"indices":12,"material":4,"attributes":{"POSITION":9,"NORMAL":10,"TEXCOORD_0":11}}]},{"name":"Mesh0","primitives":[{"indices":16,"material":2,"attributes":{"POSITION":13,"NORMAL":14,"TEXCOORD_0":15}}]},{"name":"Mesh0","primitives":[{"indices":20,"material":3,"attributes":{"POSITION":17,"NORMAL":18,"TEXCOORD_0":19}}]},{"name":"Mesh0","primitives":[{"indices":24,"material":3,"attributes":{"POSITION":21,"NORMAL":22,"TEXCOORD_0":23}}]},{"name":"Mesh0","primitives":[{"indices":28,"material":5,"attributes":{"POSITION":25,"NORMAL":26,"TEXCOORD_0":27}}]}],"accessors":[{"bufferView":0,"componentType":5126,"count":1885,"type":"VEC3","min":[-0.9839237,-4.720472E-07,1.0149202],"max":[0.98392373,0.9872312,3.683895]},{"bufferView":1,"componentType":5126,"count":1885,"type":"VEC3"},{"bufferView":2,"componentType":5126,"count":1885,"type":"VEC2"},{"bufferView":3,"componentType":5123,"count":20160,"type":"SCALAR"},{"bufferView":4,"componentType":5123,"count":6624,"type":"SCALAR"},{"bufferView":5,"componentType":5126,"count":266,"type":"VEC3","min":[-0.19485503,-0.04124017,1.411998],"max":[0.19139627,0.040888697,1.6523538]},{"bufferView":6,"componentType":5126,"count":266,"type":"VEC3"},{"bufferView":7,"componentType":5126,"count":266,"type":"VEC2"},{"bufferView":8,"componentType":5123,"count":4752,"type":"SCALAR"},{"bufferView":9,"componentType":5126,"count":1166,"type":"VEC3","min":[-1.4098533,0.16990516,-2.1457672E-05],"max":[1.4094862,0.35584998,1.88663]},{"bufferView":10,"componentType":5126,"count":1166,"type":"VEC3"},{"bufferView":11,"componentType":5126,"count":1166,"type":"VEC2"},{"bufferView":12,"componentType":5123,"count":18144,"type":"SCALAR"},{"bufferView":13,"componentType":5126,"count":2308,"type":"VEC3","min":[-0.40382814,-0.28486207,1.7533071],"max":[0.40382814,0.52279365,2.569425]},{"bufferView":14,"componentType":5126,"count":2308,"type":"VEC3"},{"bufferView":15,"componentType":5126,"count":2308,"type":"VEC2"},{"bufferView":16,"componentType":5123,"count":35712,"type":"SCALAR"},{"bufferView":17,"componentType":5126,"count":2363,"type":"VEC3","min":[0.39528835,-0.06301454,1.604198],"max":[0.5751923,0.11688949,1.7859873]},{"bufferView":18,"componentType":5126,"count":2363,"type":"VEC3"},{"bufferView":19,"componentType":5126,"count":2363,"type":"VEC2"},{"bufferView":20,"componentType":5123,"count":35712,"type":"SCALAR"},{"bufferView":21,"componentType":5126,"count":2365,"type":"VEC3","min":[-0.5751923,-0.06301454,1.604198],"max":[-0.39528835,0.11688949,1.7859873]},{"bufferView":22,"componentType":5126,"count":2365,"type":"VEC3"},{"bufferView":23,"componentType":5126,"count":2365,"type":"VEC2"},{"bufferView":24,"componentType":5123,"count":35712,"type":"SCALAR"},{"bufferView":25,"componentType":5126,"count":4,"type":"VEC3","min":[-30.180523,-30.180523,0.0],"max":[30.180523,30.180523,0.0]},{"bufferView":26,"componentType":5126,"count":4,"type":"VEC3"},{"bufferView":27,"componentType":5126,"count":4,"type":"VEC2"},{"bufferView":28,"componentType":5123,"count":18,"type":"SCALAR"}],"bufferViews":[{"target":34962,"buffer":0,"byteLength":22620,"byteOffset":0},{"target":34962,"buffer":0,"byteLength":22620,"byteOffset":22620},{"target":34962,"buffer":0,"byteLength":15080,"byteOffset":45240},{"target":34963,"buffer":0,"byteLength":40320,"byteOffset":60320},{"target":34963,"buffer":0,"byteLength":13248,"byteOffset":100640},{"target":34962,"buffer":0,"byteLength":3192,"byteOffset":113888},{"target":34962,"buffer":0,"byteLength":3192,"byteOffset":117080},{"target":34962,"buffer":0,"byteLength":2128,"byteOffset":120272},{"target":34963,"buffer":0,"byteLength":9504,"byteOffset":122400},{"target":34962,"buffer":0,"byteLength":13992,"byteOffset":131904},{"target":34962,"buffer":0,"byteLength":13992,"byteOffset":145896},{"target":34962,"buffer":0,"byteLength":9328,"byteOffset":159888},{"target":34963,"buffer":0,"byteLength":36288,"byteOffset":169216},{"target":34962,"buffer":0,"byteLength":27696,"byteOffset":205504},{"target":34962,"buffer":0,"byteLength":27696,"byteOffset":233200},{"target":34962,"buffer":0,"byteLength":18464,"byteOffset":260896},{"target":34963,"buffer":0,"byteLength":71424,"byteOffset":279360},{"target":34962,"buffer":0,"byteLength":28356,"byteOffset":350784},{"target":34962,"buffer":0,"byteLength":28356,"byteOffset":379140},{"target":34962,"buffer":0,"byteLength":18904,"byteOffset":407496},{"target":34963,"buffer":0,"byteLength":71424,"byteOffset":426400},{"target":34962,"buffer":0,"byteLength":28380,"byteOffset":497824},{"target":34962,"buffer":0,"byteLength":28380,"byteOffset":526204},{"target":34962,"buffer":0,"byteLength":18920,"byteOffset":554584},{"target":34963,"buffer":0,"byteLength":71424,"byteOffset":573504},{"target":34962,"buffer":0,"byteLength":48,"byteOffset":644928},{"target":34962,"buffer":0,"byteLength":48,"byteOffset":644976},{"target":34962,"buffer":0,"byteLength":32,"byteOffset":645024},{"target":34963,"buffer":0,"byteLength":36,"byteOffset":645056}],"buffers":[{"byteLength":645092,"uri":"data:application/octet-stream;base64,"}]}